<svg width="20" height="22" viewBox="0 0 20 22" fill="none" xmlns="http://www.w3.org/2000/svg">
    <path d="M8.93002 1.10001L4.00002 9.00001M3.40002 1.10001H16.6C17.7 1.10001 18.6 2.00001 18.6 3.10001V5.30001C18.6 6.10001 18.1 7.10001 17.6 7.60001L13.3 11.4C12.7 11.9 12.3 12.9 12.3 13.7V18C12.3 18.6 11.9 19.4 11.4 19.7L10 20.6C8.70002 21.4 6.90002 20.5 6.90002 18.9V13.6C6.90002 12.9 6.50002 12 6.10002 11.5L2.30002 7.50001C1.80002 7.00001 1.40002 6.10001 1.40002 5.50001V3.20001C1.40002 2.00001 2.30002 1.10001 3.40002 1.10001Z" stroke="#233D82" stroke-width="1.5" stroke-miterlimit="10" stroke-linecap="round" stroke-linejoin="round"/>
</svg>
    